<svg width="25" height="25" viewBox="0 0 25 25" fill="none" xmlns="http://www.w3.org/2000/svg">
<rect width="25" height="25" fill="none"/>
<path d="M24.5425 12.9395L20.6216 9.01367L22.9556 6.6748C23.5952 6.03516 23.5952 4.99512 22.9556 4.35547L20.6363 2.03613C19.9966 1.39648 18.9566 1.39648 18.3169 2.03613L15.9829 4.375L12.062 0.454102C11.7544 0.151367 11.3589 0 10.9585 0C10.5581 0 10.1626 0.151367 9.85989 0.454102L5.13821 5.17578C4.53274 5.78125 4.53274 6.76758 5.13821 7.37793L9.05911 11.3037L8.58059 11.7822C5.95852 10.5957 2.90677 10.6738 0.353055 12.0459C-0.0619839 12.2705 -0.115695 12.8467 0.216336 13.1787L5.46536 18.4277L4.59622 19.2969C4.46927 19.2627 4.35208 19.2188 4.21536 19.2188C3.3511 19.2188 2.65286 19.917 2.65286 20.7812C2.65286 21.6455 3.3511 22.3438 4.21536 22.3438C5.07962 22.3438 5.77786 21.6455 5.77786 20.7812C5.77786 20.6445 5.73391 20.5273 5.69974 20.4004L6.56888 19.5312L11.8179 24.7803C12.1499 25.1123 12.731 25.0586 12.9507 24.6436C14.3228 22.0898 14.4009 19.0381 13.2144 16.416L13.6978 15.9326L17.6187 19.8584C17.9214 20.1611 18.3218 20.3125 18.7173 20.3125C19.1128 20.3125 19.5132 20.1611 19.8159 19.8584L24.5376 15.1367C25.148 14.5312 25.148 13.5449 24.5425 12.9395ZM7.35501 6.27441L10.9585 2.6709L14.3228 6.03516L10.7193 9.63867L7.35501 6.27441ZM18.7222 17.6416L15.3579 14.2773L18.9615 10.6738L22.3257 14.0381L18.7222 17.6416Z" fill="#D4CF29"/>
</svg>
